<svg width="20" height="20" viewBox="0 0 20 20" fill="none" xmlns="http://www.w3.org/2000/svg">
<path d="M8.133 6.793L6.058 6.043C5.596 5.876 5.105 6.211 5.092 6.702L5.04 8.635C4.529 9.265 4.231 9.997 4.231 10.782C4.231 13.019 5.843 14.831 7.874 14.973C6.983 16.343 7 17.964 7 17.964V18.68C5.992 18.269 4.078 17.312 2.773 15.565C1.701 14.13 1 12.211 1 10.185C1 7.507 2.028 5.393 3.412 3.897C5.239 1.924 7.753 1 10 1C12.247 1 14.761 1.924 16.588 3.897C17.972 5.393 19 7.507 19 10.185C19 12.212 18.299 14.13 17.227 15.565C15.922 17.312 14.008 18.269 13 18.68V17.964C13 17.964 13.017 16.343 12.126 14.973C14.157 14.831 15.769 13.019 15.769 10.782C15.769 9.997 15.47 9.265 14.96 8.635L14.908 6.703C14.895 6.212 14.404 5.877 13.942 6.044L11.867 6.794C11.281 6.647 10.654 6.564 10 6.564C9.346 6.564 8.719 6.647 8.133 6.793V6.793Z" stroke="#323232" stroke-width="1.5" stroke-linecap="round" stroke-linejoin="round"/>
</svg>
